<svg xmlns="http://www.w3.org/2000/svg" xmlns:xlink="http://www.w3.org/1999/xlink" zoomAndPan="magnify" preserveAspectRatio="xMidYMid meet" version="1.0" viewBox="76.55 75.2 163.22 42.69"><defs><g/><clipPath id="c76b04e44b"><path d="M 78.371094 75.203125 L 110.582031 75.203125 L 110.582031 107.414062 L 78.371094 107.414062 Z M 78.371094 75.203125 " clip-rule="nonzero"/></clipPath></defs><g fill="#c2c7d6" fill-opacity="1"><g transform="translate(117.295982, 89.986576)"><g><path d="M 5.398438 0.128906 C 6.703125 0.128906 8.191406 -0.285156 8.738281 -0.648438 L 8.945312 -2.148438 L 8.8125 -2.160156 C 8.269531 -0.710938 7.09375 -0.105469 5.746094 -0.105469 C 2.859375 -0.105469 1.398438 -2.472656 1.410156 -4.816406 C 1.4375 -7.53125 3.15625 -8.890625 5.203125 -8.890625 C 6.976562 -8.890625 8.078125 -8.140625 8.554688 -7.117188 L 8.660156 -7.144531 L 8.605469 -8.492188 C 8.285156 -8.671875 7.027344 -9.152344 5.757812 -9.152344 C 2.847656 -9.152344 0.648438 -7.234375 0.648438 -4.324219 C 0.648438 -1.59375 2.550781 0.128906 5.398438 0.128906 Z M 5.398438 0.128906 "/></g></g></g><g fill="#c2c7d6" fill-opacity="1"><g transform="translate(126.756813, 89.986576)"><g><path d="M 0.710938 0 L 2.472656 0 L 2.472656 -0.140625 C 2.109375 -0.234375 1.953125 -0.453125 1.953125 -1.644531 L 1.953125 -4.710938 L 7.339844 -4.710938 L 7.339844 -1.644531 C 7.339844 -0.453125 7.183594 -0.234375 6.820312 -0.140625 L 6.820312 0 L 8.582031 0 L 8.582031 -0.140625 C 8.21875 -0.234375 8.0625 -0.453125 8.0625 -1.644531 L 8.0625 -7.417969 C 8.0625 -8.605469 8.21875 -8.828125 8.582031 -8.917969 L 8.582031 -9.058594 L 6.820312 -9.058594 L 6.820312 -8.917969 C 7.183594 -8.828125 7.339844 -8.605469 7.339844 -7.417969 L 7.339844 -4.890625 L 1.953125 -4.890625 L 1.953125 -7.417969 C 1.953125 -8.605469 2.109375 -8.828125 2.472656 -8.917969 L 2.472656 -9.058594 L 0.710938 -9.058594 L 0.710938 -8.917969 C 1.074219 -8.828125 1.230469 -8.605469 1.230469 -7.417969 L 1.230469 -1.644531 C 1.230469 -0.453125 1.074219 -0.234375 0.710938 -0.140625 Z M 0.710938 0 "/></g></g></g><g fill="#c2c7d6" fill-opacity="1"><g transform="translate(136.049393, 89.986576)"><g><path d="M -0.15625 0 L 1.253906 0 L 1.253906 -0.140625 C 0.800781 -0.234375 0.800781 -0.710938 1.140625 -1.527344 L 1.914062 -3.457031 L 5.773438 -3.457031 L 6.574219 -1.515625 C 7.027344 -0.414062 7.042969 -0.234375 6.679688 -0.140625 L 6.679688 0 L 8.308594 0 L 8.308594 -0.140625 C 8.050781 -0.234375 7.777344 -0.414062 7.324219 -1.515625 L 4.179688 -9.152344 L 3.519531 -8.867188 L 3.597656 -8.699219 C 3.6875 -8.515625 3.703125 -8.375 3.625 -8.179688 L 0.933594 -1.527344 C 0.480469 -0.414062 0.167969 -0.234375 -0.15625 -0.140625 Z M 1.992188 -3.636719 L 3.816406 -8.179688 L 5.695312 -3.636719 Z M 1.992188 -3.636719 "/></g></g></g><g fill="#c2c7d6" fill-opacity="1"><g transform="translate(144.306587, 89.986576)"><g><path d="M 0.90625 -7.53125 L 3.921875 0.128906 L 4.15625 0.128906 L 7.09375 -7.519531 C 7.519531 -8.632812 7.832031 -8.828125 8.152344 -8.917969 L 8.152344 -9.058594 L 6.742188 -9.058594 L 6.742188 -8.917969 C 7.195312 -8.828125 7.210938 -8.347656 6.898438 -7.519531 L 4.308594 -0.761719 L 1.65625 -7.53125 C 1.230469 -8.632812 1.214844 -8.828125 1.578125 -8.917969 L 1.578125 -9.058594 L -0.0507812 -9.058594 L -0.0507812 -8.917969 C 0.207031 -8.828125 0.480469 -8.632812 0.90625 -7.53125 Z M 0.90625 -7.53125 "/></g></g></g><g fill="#c2c7d6" fill-opacity="1"><g transform="translate(152.356704, 89.986576)"><g><path d="M 0.710938 0 L 6.910156 0 L 7.027344 -1.539062 L 6.910156 -1.566406 C 6.484375 -0.480469 5.796875 -0.167969 4.632812 -0.167969 L 2.472656 -0.167969 C 2.136719 -0.167969 1.953125 -0.347656 1.953125 -0.6875 L 1.953125 -4.738281 L 4.078125 -4.738281 C 5.421875 -4.738281 5.707031 -4.441406 5.8125 -3.960938 L 5.953125 -3.960938 L 5.953125 -5.683594 L 5.8125 -5.683594 C 5.707031 -5.203125 5.421875 -4.90625 4.078125 -4.90625 L 1.953125 -4.90625 L 1.953125 -8.890625 L 4.285156 -8.890625 C 5.449219 -8.890625 6.160156 -8.503906 6.5625 -7.496094 L 6.679688 -7.519531 L 6.523438 -9.058594 L 0.710938 -9.058594 L 0.710938 -8.917969 C 1.074219 -8.828125 1.230469 -8.605469 1.230469 -7.417969 L 1.230469 -1.644531 C 1.230469 -0.453125 1.074219 -0.234375 0.710938 -0.140625 Z M 0.710938 0 "/></g></g></g><g fill="#c2c7d6" fill-opacity="1"><g transform="translate(159.902074, 89.986576)"><g><path d="M 3.675781 0.128906 C 5.253906 0.128906 6.613281 -0.867188 6.613281 -2.304688 C 6.613281 -3.664062 5.488281 -4.234375 3.949219 -4.867188 C 2.757812 -5.359375 1.398438 -5.890625 1.398438 -7.15625 C 1.398438 -8.363281 2.367188 -8.957031 3.429688 -8.957031 C 5.152344 -8.957031 5.851562 -8.0625 6.277344 -7.171875 L 6.382812 -7.195312 L 6.328125 -8.503906 C 6.003906 -8.710938 5.191406 -9.152344 3.765625 -9.152344 C 2.007812 -9.152344 0.800781 -8.230469 0.800781 -6.808594 C 0.800781 -5.578125 1.605469 -4.945312 3.351562 -4.257812 C 4.503906 -3.804688 5.992188 -3.195312 5.992188 -1.875 C 5.992188 -0.839844 5.035156 -0.0664062 3.855469 -0.0664062 C 1.953125 -0.0664062 1.152344 -1.214844 0.710938 -2.460938 L 0.582031 -2.445312 L 0.671875 -0.789062 C 1.214844 -0.402344 2.289062 0.128906 3.675781 0.128906 Z M 3.675781 0.128906 "/></g></g></g><g fill="#c2c7d6" fill-opacity="1"><g transform="translate(166.994461, 89.986576)"><g/></g></g><g fill="#c2c7d6" fill-opacity="1"><g transform="translate(169.841771, 89.986576)"><g><path d="M 0.710938 0 L 2.472656 0 L 2.472656 -0.140625 C 2.109375 -0.234375 1.953125 -0.453125 1.953125 -1.644531 L 1.953125 -4.710938 L 7.339844 -4.710938 L 7.339844 -1.644531 C 7.339844 -0.453125 7.183594 -0.234375 6.820312 -0.140625 L 6.820312 0 L 8.582031 0 L 8.582031 -0.140625 C 8.21875 -0.234375 8.0625 -0.453125 8.0625 -1.644531 L 8.0625 -7.417969 C 8.0625 -8.605469 8.21875 -8.828125 8.582031 -8.917969 L 8.582031 -9.058594 L 6.820312 -9.058594 L 6.820312 -8.917969 C 7.183594 -8.828125 7.339844 -8.605469 7.339844 -7.417969 L 7.339844 -4.890625 L 1.953125 -4.890625 L 1.953125 -7.417969 C 1.953125 -8.605469 2.109375 -8.828125 2.472656 -8.917969 L 2.472656 -9.058594 L 0.710938 -9.058594 L 0.710938 -8.917969 C 1.074219 -8.828125 1.230469 -8.605469 1.230469 -7.417969 L 1.230469 -1.644531 C 1.230469 -0.453125 1.074219 -0.234375 0.710938 -0.140625 Z M 0.710938 0 "/></g></g></g><g fill="#c2c7d6" fill-opacity="1"><g transform="translate(179.13435, 89.986576)"><g><path d="M 0.710938 0 L 6.910156 0 L 7.027344 -1.539062 L 6.910156 -1.566406 C 6.484375 -0.480469 5.796875 -0.167969 4.632812 -0.167969 L 2.472656 -0.167969 C 2.136719 -0.167969 1.953125 -0.347656 1.953125 -0.6875 L 1.953125 -4.738281 L 4.078125 -4.738281 C 5.421875 -4.738281 5.707031 -4.441406 5.8125 -3.960938 L 5.953125 -3.960938 L 5.953125 -5.683594 L 5.8125 -5.683594 C 5.707031 -5.203125 5.421875 -4.90625 4.078125 -4.90625 L 1.953125 -4.90625 L 1.953125 -8.890625 L 4.285156 -8.890625 C 5.449219 -8.890625 6.160156 -8.503906 6.5625 -7.496094 L 6.679688 -7.519531 L 6.523438 -9.058594 L 0.710938 -9.058594 L 0.710938 -8.917969 C 1.074219 -8.828125 1.230469 -8.605469 1.230469 -7.417969 L 1.230469 -1.644531 C 1.230469 -0.453125 1.074219 -0.234375 0.710938 -0.140625 Z M 0.710938 0 "/></g></g></g><g fill="#c2c7d6" fill-opacity="1"><g transform="translate(186.67972, 89.986576)"><g><path d="M 7.558594 0.105469 L 7.726562 0.105469 L 7.726562 -7.417969 C 7.726562 -8.605469 7.882812 -8.828125 8.246094 -8.917969 L 8.246094 -9.058594 L 6.757812 -9.058594 L 6.757812 -8.917969 C 7.234375 -8.8125 7.53125 -8.53125 7.53125 -7.183594 L 7.53125 -1.179688 L 1.65625 -9.058594 L 0.582031 -9.058594 L 0.582031 -8.917969 C 1.046875 -8.828125 1.253906 -8.605469 1.253906 -7.417969 L 1.253906 -1.644531 C 1.253906 -0.453125 1.101562 -0.234375 0.738281 -0.140625 L 0.738281 0 L 2.226562 0 L 2.226562 -0.140625 C 1.746094 -0.246094 1.449219 -0.53125 1.449219 -1.875 L 1.449219 -8.117188 Z M 7.558594 0.105469 "/></g></g></g><g fill="#c2c7d6" fill-opacity="1"><g transform="translate(195.506377, 89.986576)"><g><path d="M 7.3125 0.0898438 C 7.597656 0.0898438 7.855469 0.0390625 7.945312 0 L 7.945312 -0.128906 C 7.871094 -0.117188 7.804688 -0.105469 7.726562 -0.105469 C 7.3125 -0.105469 6.9375 -0.671875 6.394531 -2.046875 C 5.824219 -3.496094 5.617188 -4.492188 3.882812 -4.738281 C 5.539062 -4.90625 6.484375 -5.851562 6.484375 -7.09375 C 6.484375 -8.347656 5.5 -9.058594 3.09375 -9.058594 L 0.710938 -9.058594 L 0.710938 -8.917969 C 1.074219 -8.828125 1.230469 -8.605469 1.230469 -7.417969 L 1.230469 -1.644531 C 1.230469 -0.453125 1.074219 -0.234375 0.710938 -0.140625 L 0.710938 0 L 2.472656 0 L 2.472656 -0.140625 C 2.109375 -0.234375 1.953125 -0.453125 1.953125 -1.644531 L 1.953125 -4.710938 L 2.847656 -4.710938 C 4.855469 -4.710938 5.007812 -3.507812 5.734375 -1.839844 C 6.238281 -0.671875 6.382812 0.0898438 7.3125 0.0898438 Z M 1.953125 -4.890625 L 1.953125 -8.867188 C 2.1875 -8.878906 2.394531 -8.890625 2.601562 -8.890625 C 4.855469 -8.890625 5.683594 -8.078125 5.683594 -6.808594 C 5.683594 -5.589844 4.828125 -4.890625 3.328125 -4.890625 Z M 1.953125 -4.890625 "/></g></g></g><g fill="#c2c7d6" fill-opacity="1"><g transform="translate(203.336474, 89.986576)"><g><path d="M 0.710938 0 L 2.472656 0 L 2.472656 -0.140625 C 2.109375 -0.234375 1.953125 -0.453125 1.953125 -1.644531 L 1.953125 -7.417969 C 1.953125 -8.605469 2.109375 -8.828125 2.472656 -8.917969 L 2.472656 -9.058594 L 0.710938 -9.058594 L 0.710938 -8.917969 C 1.074219 -8.828125 1.230469 -8.605469 1.230469 -7.417969 L 1.230469 -1.644531 C 1.230469 -0.453125 1.074219 -0.234375 0.710938 -0.140625 Z M 0.710938 0 "/></g></g></g><g fill="#c2c7d6" fill-opacity="1"><g transform="translate(206.520284, 89.986576)"><g><path d="M 9.046875 2.070312 C 9.578125 2.070312 10.171875 1.628906 10.78125 0.972656 L 10.691406 0.894531 C 10.316406 1.292969 9.941406 1.476562 9.382812 1.476562 C 8.347656 1.476562 7.261719 0.761719 6.25 0.0273438 C 8.089844 -0.347656 9.773438 -1.761719 9.773438 -4.492188 C 9.773438 -7.664062 7.402344 -9.164062 5.214844 -9.164062 C 2.472656 -9.164062 0.648438 -7.261719 0.648438 -4.515625 C 0.648438 -1.347656 3.015625 0.128906 5.214844 0.128906 C 5.5 0.128906 5.785156 0.105469 6.070312 0.0507812 C 6.601562 0.621094 7.910156 2.070312 9.046875 2.070312 Z M 1.347656 -5.214844 C 1.347656 -7.351562 2.652344 -8.917969 4.839844 -8.917969 C 7.261719 -8.917969 9.085938 -6.457031 9.085938 -3.816406 C 9.085938 -1.617188 7.726562 -0.117188 5.550781 -0.117188 C 3.121094 -0.117188 1.347656 -2.601562 1.347656 -5.214844 Z M 1.347656 -5.214844 "/></g></g></g><g fill="#c2c7d6" fill-opacity="1"><g transform="translate(216.93885, 89.986576)"><g><path d="M 4.554688 0.128906 C 6.265625 0.128906 7.765625 -0.789062 7.765625 -3.390625 L 7.765625 -7.417969 C 7.765625 -8.605469 7.921875 -8.828125 8.285156 -8.917969 L 8.285156 -9.058594 L 6.796875 -9.058594 L 6.796875 -8.917969 C 7.273438 -8.8125 7.570312 -8.53125 7.570312 -7.183594 L 7.570312 -3.339844 C 7.570312 -0.761719 5.992188 -0.0898438 4.855469 -0.0898438 C 3.273438 -0.0898438 1.761719 -0.957031 1.761719 -3.417969 L 1.761719 -7.417969 C 1.761719 -8.605469 1.914062 -8.828125 2.277344 -8.917969 L 2.277344 -9.058594 L 0.519531 -9.058594 L 0.519531 -8.917969 C 0.878906 -8.828125 1.035156 -8.605469 1.035156 -7.417969 L 1.035156 -3.132812 C 1.035156 -0.738281 2.730469 0.128906 4.554688 0.128906 Z M 4.554688 0.128906 "/></g></g></g><g fill="#c2c7d6" fill-opacity="1"><g transform="translate(225.610198, 89.986576)"><g><path d="M 0.710938 0 L 6.910156 0 L 7.027344 -1.539062 L 6.910156 -1.566406 C 6.484375 -0.480469 5.796875 -0.167969 4.632812 -0.167969 L 2.472656 -0.167969 C 2.136719 -0.167969 1.953125 -0.347656 1.953125 -0.6875 L 1.953125 -4.738281 L 4.078125 -4.738281 C 5.421875 -4.738281 5.707031 -4.441406 5.8125 -3.960938 L 5.953125 -3.960938 L 5.953125 -5.683594 L 5.8125 -5.683594 C 5.707031 -5.203125 5.421875 -4.90625 4.078125 -4.90625 L 1.953125 -4.90625 L 1.953125 -8.890625 L 4.285156 -8.890625 C 5.449219 -8.890625 6.160156 -8.503906 6.5625 -7.496094 L 6.679688 -7.519531 L 6.523438 -9.058594 L 0.710938 -9.058594 L 0.710938 -8.917969 C 1.074219 -8.828125 1.230469 -8.605469 1.230469 -7.417969 L 1.230469 -1.644531 C 1.230469 -0.453125 1.074219 -0.234375 0.710938 -0.140625 Z M 0.710938 0 "/></g></g></g><g fill="#c2c7d6" fill-opacity="1"><g transform="translate(233.155564, 89.986576)"><g><path d="M 3.675781 0.128906 C 5.253906 0.128906 6.613281 -0.867188 6.613281 -2.304688 C 6.613281 -3.664062 5.488281 -4.234375 3.949219 -4.867188 C 2.757812 -5.359375 1.398438 -5.890625 1.398438 -7.15625 C 1.398438 -8.363281 2.367188 -8.957031 3.429688 -8.957031 C 5.152344 -8.957031 5.851562 -8.0625 6.277344 -7.171875 L 6.382812 -7.195312 L 6.328125 -8.503906 C 6.003906 -8.710938 5.191406 -9.152344 3.765625 -9.152344 C 2.007812 -9.152344 0.800781 -8.230469 0.800781 -6.808594 C 0.800781 -5.578125 1.605469 -4.945312 3.351562 -4.257812 C 4.503906 -3.804688 5.992188 -3.195312 5.992188 -1.875 C 5.992188 -0.839844 5.035156 -0.0664062 3.855469 -0.0664062 C 1.953125 -0.0664062 1.152344 -1.214844 0.710938 -2.460938 L 0.582031 -2.445312 L 0.671875 -0.789062 C 1.214844 -0.402344 2.289062 0.128906 3.675781 0.128906 Z M 3.675781 0.128906 "/></g></g></g><g fill="#c2c7d6" fill-opacity="1"><g transform="translate(151.639773, 107.871057)"><g><path d="M 2.730469 0 L 4.503906 0 L 4.503906 -0.140625 C 4.140625 -0.234375 3.988281 -0.453125 3.988281 -1.644531 L 3.988281 -8.890625 L 4.855469 -8.890625 C 6.019531 -8.890625 6.457031 -8.582031 6.847656 -7.753906 L 6.964844 -7.777344 L 6.886719 -9.058594 L 0.324219 -9.058594 L 0.246094 -7.777344 L 0.363281 -7.753906 C 0.75 -8.582031 1.191406 -8.890625 2.355469 -8.890625 L 3.25 -8.890625 L 3.25 -1.644531 C 3.25 -0.453125 3.09375 -0.234375 2.730469 -0.140625 Z M 2.730469 0 "/></g></g></g><g fill="#c2c7d6" fill-opacity="1"><g transform="translate(158.874525, 107.871057)"><g><path d="M -0.15625 0 L 1.253906 0 L 1.253906 -0.140625 C 0.800781 -0.234375 0.800781 -0.710938 1.140625 -1.527344 L 1.914062 -3.457031 L 5.773438 -3.457031 L 6.574219 -1.515625 C 7.027344 -0.414062 7.042969 -0.234375 6.679688 -0.140625 L 6.679688 0 L 8.308594 0 L 8.308594 -0.140625 C 8.050781 -0.234375 7.777344 -0.414062 7.324219 -1.515625 L 4.179688 -9.152344 L 3.519531 -8.867188 L 3.597656 -8.699219 C 3.6875 -8.515625 3.703125 -8.375 3.625 -8.179688 L 0.933594 -1.527344 C 0.480469 -0.414062 0.167969 -0.234375 -0.15625 -0.140625 Z M 1.992188 -3.636719 L 3.816406 -8.179688 L 5.695312 -3.636719 Z M 1.992188 -3.636719 "/></g></g></g><g fill="#c2c7d6" fill-opacity="1"><g transform="translate(167.131719, 107.871057)"><g><path d="M 0.90625 -7.53125 L 3.921875 0.128906 L 4.15625 0.128906 L 7.09375 -7.519531 C 7.519531 -8.632812 7.832031 -8.828125 8.152344 -8.917969 L 8.152344 -9.058594 L 6.742188 -9.058594 L 6.742188 -8.917969 C 7.195312 -8.828125 7.210938 -8.347656 6.898438 -7.519531 L 4.308594 -0.761719 L 1.65625 -7.53125 C 1.230469 -8.632812 1.214844 -8.828125 1.578125 -8.917969 L 1.578125 -9.058594 L -0.0507812 -9.058594 L -0.0507812 -8.917969 C 0.207031 -8.828125 0.480469 -8.632812 0.90625 -7.53125 Z M 0.90625 -7.53125 "/></g></g></g><g fill="#c2c7d6" fill-opacity="1"><g transform="translate(175.181837, 107.871057)"><g><path d="M -0.15625 0 L 1.253906 0 L 1.253906 -0.140625 C 0.800781 -0.234375 0.800781 -0.710938 1.140625 -1.527344 L 1.914062 -3.457031 L 5.773438 -3.457031 L 6.574219 -1.515625 C 7.027344 -0.414062 7.042969 -0.234375 6.679688 -0.140625 L 6.679688 0 L 8.308594 0 L 8.308594 -0.140625 C 8.050781 -0.234375 7.777344 -0.414062 7.324219 -1.515625 L 4.179688 -9.152344 L 3.519531 -8.867188 L 3.597656 -8.699219 C 3.6875 -8.515625 3.703125 -8.375 3.625 -8.179688 L 0.933594 -1.527344 C 0.480469 -0.414062 0.167969 -0.234375 -0.15625 -0.140625 Z M 1.992188 -3.636719 L 3.816406 -8.179688 L 5.695312 -3.636719 Z M 1.992188 -3.636719 "/></g></g></g><g fill="#c2c7d6" fill-opacity="1"><g transform="translate(183.439031, 107.871057)"><g><path d="M 7.3125 0.0898438 C 7.597656 0.0898438 7.855469 0.0390625 7.945312 0 L 7.945312 -0.128906 C 7.871094 -0.117188 7.804688 -0.105469 7.726562 -0.105469 C 7.3125 -0.105469 6.9375 -0.671875 6.394531 -2.046875 C 5.824219 -3.496094 5.617188 -4.492188 3.882812 -4.738281 C 5.539062 -4.90625 6.484375 -5.851562 6.484375 -7.09375 C 6.484375 -8.347656 5.5 -9.058594 3.09375 -9.058594 L 0.710938 -9.058594 L 0.710938 -8.917969 C 1.074219 -8.828125 1.230469 -8.605469 1.230469 -7.417969 L 1.230469 -1.644531 C 1.230469 -0.453125 1.074219 -0.234375 0.710938 -0.140625 L 0.710938 0 L 2.472656 0 L 2.472656 -0.140625 C 2.109375 -0.234375 1.953125 -0.453125 1.953125 -1.644531 L 1.953125 -4.710938 L 2.847656 -4.710938 C 4.855469 -4.710938 5.007812 -3.507812 5.734375 -1.839844 C 6.238281 -0.671875 6.382812 0.0898438 7.3125 0.0898438 Z M 1.953125 -4.890625 L 1.953125 -8.867188 C 2.1875 -8.878906 2.394531 -8.890625 2.601562 -8.890625 C 4.855469 -8.890625 5.683594 -8.078125 5.683594 -6.808594 C 5.683594 -5.589844 4.828125 -4.890625 3.328125 -4.890625 Z M 1.953125 -4.890625 "/></g></g></g><g fill="#c2c7d6" fill-opacity="1"><g transform="translate(191.269132, 107.871057)"><g><path d="M 0.710938 0 L 6.910156 0 L 7.027344 -1.539062 L 6.910156 -1.566406 C 6.484375 -0.480469 5.796875 -0.167969 4.632812 -0.167969 L 2.472656 -0.167969 C 2.136719 -0.167969 1.953125 -0.347656 1.953125 -0.6875 L 1.953125 -4.738281 L 4.078125 -4.738281 C 5.421875 -4.738281 5.707031 -4.441406 5.8125 -3.960938 L 5.953125 -3.960938 L 5.953125 -5.683594 L 5.8125 -5.683594 C 5.707031 -5.203125 5.421875 -4.90625 4.078125 -4.90625 L 1.953125 -4.90625 L 1.953125 -8.890625 L 4.285156 -8.890625 C 5.449219 -8.890625 6.160156 -8.503906 6.5625 -7.496094 L 6.679688 -7.519531 L 6.523438 -9.058594 L 0.710938 -9.058594 L 0.710938 -8.917969 C 1.074219 -8.828125 1.230469 -8.605469 1.230469 -7.417969 L 1.230469 -1.644531 C 1.230469 -0.453125 1.074219 -0.234375 0.710938 -0.140625 Z M 0.710938 0 "/></g></g></g><g fill="#c2c7d6" fill-opacity="1"><g transform="translate(198.814502, 107.871057)"><g><path d="M 3.675781 0.128906 C 5.253906 0.128906 6.613281 -0.867188 6.613281 -2.304688 C 6.613281 -3.664062 5.488281 -4.234375 3.949219 -4.867188 C 2.757812 -5.359375 1.398438 -5.890625 1.398438 -7.15625 C 1.398438 -8.363281 2.367188 -8.957031 3.429688 -8.957031 C 5.152344 -8.957031 5.851562 -8.0625 6.277344 -7.171875 L 6.382812 -7.195312 L 6.328125 -8.503906 C 6.003906 -8.710938 5.191406 -9.152344 3.765625 -9.152344 C 2.007812 -9.152344 0.800781 -8.230469 0.800781 -6.808594 C 0.800781 -5.578125 1.605469 -4.945312 3.351562 -4.257812 C 4.503906 -3.804688 5.992188 -3.195312 5.992188 -1.875 C 5.992188 -0.839844 5.035156 -0.0664062 3.855469 -0.0664062 C 1.953125 -0.0664062 1.152344 -1.214844 0.710938 -2.460938 L 0.582031 -2.445312 L 0.671875 -0.789062 C 1.214844 -0.402344 2.289062 0.128906 3.675781 0.128906 Z M 3.675781 0.128906 "/></g></g></g><g fill="#c2c7d6" fill-opacity="1"><g transform="translate(158.286369, 117.830189)"><g><path d="M -0.078125 0 L 0.640625 0 L 0.640625 -0.0742188 C 0.410156 -0.117188 0.410156 -0.363281 0.578125 -0.777344 L 0.976562 -1.757812 L 2.9375 -1.757812 L 3.347656 -0.769531 C 3.578125 -0.210938 3.585938 -0.117188 3.398438 -0.0742188 L 3.398438 0 L 4.230469 0 L 4.230469 -0.0742188 C 4.097656 -0.117188 3.960938 -0.210938 3.730469 -0.769531 L 2.128906 -4.65625 L 1.792969 -4.511719 L 1.832031 -4.425781 C 1.878906 -4.335938 1.882812 -4.261719 1.84375 -4.164062 L 0.472656 -0.777344 C 0.242188 -0.210938 0.0859375 -0.117188 -0.078125 -0.0742188 Z M 1.015625 -1.851562 L 1.945312 -4.164062 L 2.898438 -1.851562 Z M 1.015625 -1.851562 "/></g></g></g><g fill="#c2c7d6" fill-opacity="1"><g transform="translate(162.488827, 117.830189)"><g><path d="M 0.363281 0 L 2.023438 0 C 3.472656 0 4.40625 -1.039062 4.402344 -2.386719 C 4.394531 -3.5625 3.578125 -4.613281 1.863281 -4.613281 L 0.363281 -4.613281 L 0.363281 -4.539062 C 0.546875 -4.492188 0.625 -4.382812 0.625 -3.773438 L 0.625 -0.835938 C 0.625 -0.230469 0.546875 -0.117188 0.363281 -0.0742188 Z M 0.996094 -0.574219 L 0.996094 -4.527344 L 1.640625 -4.527344 C 3.117188 -4.527344 3.984375 -3.464844 3.984375 -2.1875 C 3.984375 -0.851562 3.300781 -0.09375 2.042969 -0.09375 L 1.421875 -0.09375 C 1.0625 -0.09375 0.996094 -0.261719 0.996094 -0.574219 Z M 0.996094 -0.574219 "/></g></g></g><g fill="#c2c7d6" fill-opacity="1"><g transform="translate(167.218238, 117.830189)"><g><path d="M 0.460938 -3.835938 L 1.996094 0.0664062 L 2.113281 0.0664062 L 3.609375 -3.828125 C 3.828125 -4.394531 3.984375 -4.492188 4.152344 -4.539062 L 4.152344 -4.613281 L 3.433594 -4.613281 L 3.433594 -4.539062 C 3.664062 -4.492188 3.667969 -4.25 3.511719 -3.828125 L 2.195312 -0.390625 L 0.84375 -3.835938 C 0.625 -4.394531 0.621094 -4.492188 0.804688 -4.539062 L 0.804688 -4.613281 L -0.0273438 -4.613281 L -0.0273438 -4.539062 C 0.105469 -4.492188 0.242188 -4.394531 0.460938 -3.835938 Z M 0.460938 -3.835938 "/></g></g></g><g fill="#c2c7d6" fill-opacity="1"><g transform="translate(171.315307, 117.830189)"><g><path d="M 2.65625 0.0664062 C 3.761719 0.0664062 4.972656 -0.632812 4.972656 -2.285156 C 4.972656 -3.902344 3.769531 -4.664062 2.65625 -4.664062 C 1.257812 -4.664062 0.328125 -3.695312 0.328125 -2.300781 C 0.328125 -0.683594 1.535156 0.0664062 2.65625 0.0664062 Z M 0.683594 -2.65625 C 0.683594 -3.742188 1.351562 -4.539062 2.464844 -4.539062 C 3.695312 -4.539062 4.625 -3.289062 4.625 -1.945312 C 4.625 -0.824219 3.933594 -0.0585938 2.828125 -0.0585938 C 1.585938 -0.0585938 0.683594 -1.324219 0.683594 -2.65625 Z M 0.683594 -2.65625 "/></g></g></g><g fill="#c2c7d6" fill-opacity="1"><g transform="translate(176.617781, 117.830189)"><g><path d="M 2.695312 0.0664062 C 3.484375 0.0664062 4.195312 -0.355469 4.453125 -0.769531 L 4.453125 -2.035156 L 3.761719 -2.035156 L 3.761719 -1.964844 C 4.050781 -1.902344 4.089844 -1.773438 4.097656 -1.484375 L 4.109375 -0.726562 C 3.945312 -0.394531 3.453125 -0.0390625 2.878906 -0.0390625 C 1.484375 -0.0390625 0.671875 -1.335938 0.683594 -2.582031 C 0.699219 -3.820312 1.46875 -4.546875 2.511719 -4.546875 C 3.398438 -4.546875 3.914062 -4.058594 4.132812 -3.605469 L 4.183594 -3.617188 L 4.15625 -4.296875 C 3.992188 -4.402344 3.417969 -4.65625 2.640625 -4.65625 C 1.3125 -4.65625 0.328125 -3.609375 0.328125 -2.21875 C 0.328125 -0.832031 1.265625 0.0664062 2.695312 0.0664062 Z M 2.695312 0.0664062 "/></g></g></g><g fill="#c2c7d6" fill-opacity="1"><g transform="translate(181.419651, 117.830189)"><g><path d="M -0.078125 0 L 0.640625 0 L 0.640625 -0.0742188 C 0.410156 -0.117188 0.410156 -0.363281 0.578125 -0.777344 L 0.976562 -1.757812 L 2.9375 -1.757812 L 3.347656 -0.769531 C 3.578125 -0.210938 3.585938 -0.117188 3.398438 -0.0742188 L 3.398438 0 L 4.230469 0 L 4.230469 -0.0742188 C 4.097656 -0.117188 3.960938 -0.210938 3.730469 -0.769531 L 2.128906 -4.65625 L 1.792969 -4.511719 L 1.832031 -4.425781 C 1.878906 -4.335938 1.882812 -4.261719 1.84375 -4.164062 L 0.472656 -0.777344 C 0.242188 -0.210938 0.0859375 -0.117188 -0.078125 -0.0742188 Z M 1.015625 -1.851562 L 1.945312 -4.164062 L 2.898438 -1.851562 Z M 1.015625 -1.851562 "/></g></g></g><g fill="#c2c7d6" fill-opacity="1"><g transform="translate(185.622109, 117.830189)"><g><path d="M 0.363281 0 L 2.023438 0 C 3.472656 0 4.40625 -1.039062 4.402344 -2.386719 C 4.394531 -3.5625 3.578125 -4.613281 1.863281 -4.613281 L 0.363281 -4.613281 L 0.363281 -4.539062 C 0.546875 -4.492188 0.625 -4.382812 0.625 -3.773438 L 0.625 -0.835938 C 0.625 -0.230469 0.546875 -0.117188 0.363281 -0.0742188 Z M 0.996094 -0.574219 L 0.996094 -4.527344 L 1.640625 -4.527344 C 3.117188 -4.527344 3.984375 -3.464844 3.984375 -2.1875 C 3.984375 -0.851562 3.300781 -0.09375 2.042969 -0.09375 L 1.421875 -0.09375 C 1.0625 -0.09375 0.996094 -0.261719 0.996094 -0.574219 Z M 0.996094 -0.574219 "/></g></g></g><g fill="#c2c7d6" fill-opacity="1"><g transform="translate(190.35152, 117.830189)"><g><path d="M 2.65625 0.0664062 C 3.761719 0.0664062 4.972656 -0.632812 4.972656 -2.285156 C 4.972656 -3.902344 3.769531 -4.664062 2.65625 -4.664062 C 1.257812 -4.664062 0.328125 -3.695312 0.328125 -2.300781 C 0.328125 -0.683594 1.535156 0.0664062 2.65625 0.0664062 Z M 0.683594 -2.65625 C 0.683594 -3.742188 1.351562 -4.539062 2.464844 -4.539062 C 3.695312 -4.539062 4.625 -3.289062 4.625 -1.945312 C 4.625 -0.824219 3.933594 -0.0585938 2.828125 -0.0585938 C 1.585938 -0.0585938 0.683594 -1.324219 0.683594 -2.65625 Z M 0.683594 -2.65625 "/></g></g></g><g fill="#c2c7d6" fill-opacity="1"><g transform="translate(195.653994, 117.830189)"><g><path d="M 1.871094 0.0664062 C 2.675781 0.0664062 3.367188 -0.441406 3.367188 -1.171875 C 3.367188 -1.863281 2.792969 -2.15625 2.007812 -2.476562 C 1.402344 -2.726562 0.710938 -2.996094 0.710938 -3.644531 C 0.710938 -4.257812 1.207031 -4.558594 1.746094 -4.558594 C 2.621094 -4.558594 2.976562 -4.105469 3.195312 -3.648438 L 3.25 -3.664062 L 3.222656 -4.328125 C 3.058594 -4.433594 2.640625 -4.65625 1.917969 -4.65625 C 1.019531 -4.65625 0.410156 -4.191406 0.410156 -3.464844 C 0.410156 -2.839844 0.816406 -2.515625 1.707031 -2.167969 C 2.292969 -1.9375 3.050781 -1.628906 3.050781 -0.957031 C 3.050781 -0.429688 2.5625 -0.03125 1.964844 -0.03125 C 0.996094 -0.03125 0.585938 -0.621094 0.363281 -1.25 L 0.296875 -1.246094 L 0.34375 -0.402344 C 0.621094 -0.203125 1.167969 0.0664062 1.871094 0.0664062 Z M 1.871094 0.0664062 "/></g></g></g><g fill="#c2c7d6" fill-opacity="1"><g transform="translate(76.338599, 94.259136)"><g><path d="M 20.59375 -8.59375 C 20.550781 -8.59375 20.503906 -8.59375 20.453125 -8.59375 C 20.410156 -8.601562 20.367188 -8.625 20.328125 -8.65625 C 20.285156 -8.707031 20.265625 -8.753906 20.265625 -8.796875 C 20.273438 -8.835938 20.296875 -8.875 20.328125 -8.90625 C 20.710938 -9.53125 21.046875 -10.179688 21.328125 -10.859375 C 21.503906 -11.273438 21.660156 -11.707031 21.796875 -12.15625 C 21.890625 -12.4375 21.898438 -12.734375 21.828125 -13.046875 C 21.753906 -13.390625 21.550781 -13.628906 21.21875 -13.765625 C 20.957031 -13.859375 20.691406 -13.910156 20.421875 -13.921875 C 20.378906 -13.921875 20.332031 -13.921875 20.28125 -13.921875 C 19.71875 -13.898438 19.164062 -13.816406 18.625 -13.671875 C 17.707031 -13.453125 16.816406 -13.175781 15.953125 -12.84375 C 15.085938 -12.507812 14.242188 -12.144531 13.421875 -11.75 C 9.796875 -9.988281 6.554688 -7.765625 3.703125 -5.078125 C 2.972656 -4.429688 2.335938 -3.707031 1.796875 -2.90625 C 1.609375 -2.613281 1.441406 -2.3125 1.296875 -2 C 1.222656 -1.820312 1.164062 -1.632812 1.125 -1.4375 C 1.007812 -0.78125 1.296875 -0.289062 1.984375 0.03125 C 2.566406 0.300781 3.15625 0.453125 3.75 0.484375 C 4.226562 0.523438 4.6875 0.546875 5.125 0.546875 C 5.34375 0.546875 5.546875 0.539062 5.734375 0.53125 C 8.578125 0.5 11.253906 0.128906 13.765625 -0.578125 C 13.804688 -0.597656 13.847656 -0.609375 13.890625 -0.609375 C 14.054688 -0.671875 14.234375 -0.71875 14.421875 -0.75 C 14.472656 -0.757812 14.554688 -0.765625 14.671875 -0.765625 C 14.785156 -0.773438 14.890625 -0.769531 14.984375 -0.75 C 15.085938 -0.726562 15.148438 -0.679688 15.171875 -0.609375 C 15.179688 -0.566406 15.175781 -0.535156 15.15625 -0.515625 C 15.132812 -0.492188 15.101562 -0.484375 15.0625 -0.484375 C 14.914062 -0.441406 14.765625 -0.398438 14.609375 -0.359375 C 14.148438 -0.234375 13.695312 -0.113281 13.25 0 C 10.695312 0.65625 8.046875 0.972656 5.296875 0.953125 C 4.734375 0.953125 4.164062 0.941406 3.59375 0.921875 C 2.957031 0.890625 2.316406 0.753906 1.671875 0.515625 C 0.398438 0.0234375 -0.0390625 -0.785156 0.34375 -1.921875 C 0.5 -2.378906 0.71875 -2.800781 1 -3.1875 C 1.394531 -3.75 1.832031 -4.269531 2.3125 -4.75 C 2.789062 -5.238281 3.289062 -5.710938 3.8125 -6.171875 C 6.125 -8.210938 8.671875 -9.960938 11.453125 -11.421875 C 12.304688 -11.867188 13.171875 -12.285156 14.046875 -12.671875 C 14.929688 -13.054688 15.84375 -13.394531 16.78125 -13.6875 C 17.570312 -13.9375 18.382812 -14.128906 19.21875 -14.265625 C 19.550781 -14.304688 19.882812 -14.328125 20.21875 -14.328125 C 20.425781 -14.328125 20.644531 -14.320312 20.875 -14.3125 C 21.125 -14.28125 21.378906 -14.226562 21.640625 -14.15625 C 22.335938 -13.90625 22.695312 -13.441406 22.71875 -12.765625 C 22.71875 -12.460938 22.675781 -12.175781 22.59375 -11.90625 C 22.425781 -11.375 22.21875 -10.859375 21.96875 -10.359375 C 21.71875 -9.867188 21.453125 -9.390625 21.171875 -8.921875 C 21.085938 -8.753906 20.957031 -8.644531 20.78125 -8.59375 C 20.726562 -8.59375 20.675781 -8.59375 20.625 -8.59375 Z M 20.59375 -8.59375 "/></g></g></g><g fill="#c2c7d6" fill-opacity="1"><g transform="translate(92.066349, 94.259136)"><g><path d="M 27.75 0.203125 C 27.757812 0.210938 27.769531 0.226562 27.78125 0.25 C 27.800781 0.269531 27.8125 0.296875 27.8125 0.328125 C 27.8125 0.359375 27.800781 0.382812 27.78125 0.40625 C 27.757812 0.4375 27.734375 0.453125 27.703125 0.453125 L 27.578125 0.4375 C 27.566406 0.445312 27.554688 0.453125 27.546875 0.453125 C 25.503906 0.335938 23.488281 0.265625 21.5 0.234375 C 19.519531 0.210938 17.519531 0.207031 15.5 0.21875 C 15.175781 0.21875 14.847656 0.21875 14.515625 0.21875 C 14.316406 0.21875 14.15625 0.253906 14.03125 0.328125 C 13.90625 0.410156 13.796875 0.550781 13.703125 0.75 C 13.191406 1.925781 12.664062 3.101562 12.125 4.28125 C 11.820312 4.914062 11.523438 5.554688 11.234375 6.203125 C 11.023438 6.671875 10.820312 7.144531 10.625 7.625 C 10.519531 7.851562 10.414062 8.085938 10.3125 8.328125 C 10.3125 8.347656 10.300781 8.375 10.28125 8.40625 C 10.257812 8.46875 10.234375 8.523438 10.203125 8.578125 C 10.128906 8.640625 10.039062 8.671875 9.9375 8.671875 C 9.832031 8.679688 9.738281 8.660156 9.65625 8.609375 C 9.582031 8.566406 9.5625 8.484375 9.59375 8.359375 C 9.664062 8.160156 9.75 7.960938 9.84375 7.765625 C 10.625 5.992188 11.40625 4.222656 12.1875 2.453125 C 12.375 2.035156 12.5625 1.613281 12.75 1.1875 C 12.769531 1.125 12.796875 1.054688 12.828125 0.984375 C 12.898438 0.835938 12.96875 0.691406 13.03125 0.546875 C 13.09375 0.390625 13.050781 0.300781 12.90625 0.28125 C 11.875 0.3125 10.847656 0.359375 9.828125 0.421875 C 9.296875 0.453125 8.757812 0.476562 8.21875 0.5 C 7.90625 0.507812 7.691406 0.65625 7.578125 0.9375 C 7.035156 2.09375 6.476562 3.238281 5.90625 4.375 C 5.5625 5.039062 5.21875 5.710938 4.875 6.390625 C 4.738281 6.628906 4.609375 6.867188 4.484375 7.109375 C 4.410156 7.265625 4.332031 7.410156 4.25 7.546875 C 4.15625 7.671875 4.03125 7.742188 3.875 7.765625 C 3.726562 7.796875 3.597656 7.789062 3.484375 7.75 C 3.367188 7.707031 3.316406 7.640625 3.328125 7.546875 C 3.367188 7.359375 3.425781 7.175781 3.5 7 C 4.082031 5.507812 4.71875 4.046875 5.40625 2.609375 C 5.644531 2.097656 5.890625 1.585938 6.140625 1.078125 C 6.203125 0.910156 6.15625 0.816406 6 0.796875 C 5.84375 0.773438 5.617188 0.78125 5.328125 0.8125 C 5.316406 0.8125 5.300781 0.8125 5.28125 0.8125 C 4.757812 0.863281 4.222656 0.9375 3.671875 1.03125 C 3.128906 1.132812 2.773438 1.207031 2.609375 1.25 C 2.441406 1.289062 2.269531 1.3125 2.09375 1.3125 C 2.082031 1.320312 2.070312 1.328125 2.0625 1.328125 C 2.039062 1.328125 2.019531 1.320312 2 1.3125 L 1.90625 1.328125 C 1.875 1.328125 1.84375 1.3125 1.8125 1.28125 C 1.78125 1.257812 1.765625 1.226562 1.765625 1.1875 C 1.765625 1.164062 1.773438 1.140625 1.796875 1.109375 C 1.816406 1.078125 1.84375 1.050781 1.875 1.03125 C 2.519531 0.8125 3.179688 0.65625 3.859375 0.5625 C 4.628906 0.445312 5.398438 0.347656 6.171875 0.265625 C 6.421875 0.265625 6.601562 0.148438 6.71875 -0.078125 C 6.9375 -0.535156 7.164062 -1 7.40625 -1.46875 C 7.695312 -2.007812 7.992188 -2.550781 8.296875 -3.09375 C 8.398438 -3.289062 8.503906 -3.492188 8.609375 -3.703125 C 8.628906 -3.722656 8.644531 -3.742188 8.65625 -3.765625 C 8.6875 -3.828125 8.722656 -3.882812 8.765625 -3.9375 C 8.960938 -4.175781 9.128906 -4.429688 9.265625 -4.703125 C 9.410156 -4.984375 9.539062 -5.269531 9.65625 -5.5625 C 9.707031 -5.6875 9.757812 -5.804688 9.8125 -5.921875 C 10.789062 -8.128906 11.753906 -10.347656 12.703125 -12.578125 C 13.148438 -13.546875 13.488281 -14.546875 13.71875 -15.578125 C 13.8125 -15.953125 13.835938 -16.320312 13.796875 -16.6875 C 13.742188 -16.90625 13.597656 -17.019531 13.359375 -17.03125 C 13.128906 -17.039062 12.847656 -16.976562 12.515625 -16.84375 C 12.179688 -16.71875 11.832031 -16.5625 11.46875 -16.375 C 11.101562 -16.1875 10.773438 -16.003906 10.484375 -15.828125 C 10.191406 -15.648438 9.976562 -15.515625 9.84375 -15.421875 C 9.800781 -15.398438 9.773438 -15.382812 9.765625 -15.375 C 5.960938 -13.007812 2.554688 -10.171875 -0.453125 -6.859375 C -0.773438 -6.492188 -1.085938 -6.113281 -1.390625 -5.71875 C -1.703125 -5.332031 -1.984375 -4.925781 -2.234375 -4.5 C -2.429688 -4.175781 -2.585938 -3.835938 -2.703125 -3.484375 C -2.835938 -2.941406 -2.796875 -2.523438 -2.578125 -2.234375 C -2.359375 -1.953125 -2.03125 -1.757812 -1.59375 -1.65625 C -1.15625 -1.5625 -0.675781 -1.53125 -0.15625 -1.5625 C 0.351562 -1.59375 0.832031 -1.644531 1.28125 -1.71875 C 1.738281 -1.789062 2.09375 -1.863281 2.34375 -1.9375 C 2.644531 -2.007812 2.945312 -2.082031 3.25 -2.15625 C 3.507812 -2.195312 3.582031 -2.175781 3.46875 -2.09375 C 3.351562 -2.019531 3.101562 -1.910156 2.71875 -1.765625 C 2.34375 -1.617188 1.890625 -1.476562 1.359375 -1.34375 C 0.828125 -1.21875 0.28125 -1.125 -0.28125 -1.0625 C -0.851562 -1.007812 -1.390625 -1.019531 -1.890625 -1.09375 C -2.390625 -1.175781 -2.796875 -1.363281 -3.109375 -1.65625 C -3.421875 -1.945312 -3.578125 -2.375 -3.578125 -2.9375 C -3.578125 -2.945312 -3.578125 -2.960938 -3.578125 -2.984375 C -3.566406 -3.335938 -3.484375 -3.675781 -3.328125 -4 C -3.078125 -4.59375 -2.753906 -5.140625 -2.359375 -5.640625 C -1.941406 -6.179688 -1.507812 -6.703125 -1.0625 -7.203125 C 1.851562 -10.398438 5.140625 -13.160156 8.796875 -15.484375 C 9.234375 -15.765625 9.734375 -16.066406 10.296875 -16.390625 C 10.867188 -16.722656 11.457031 -17 12.0625 -17.21875 C 12.664062 -17.4375 13.234375 -17.535156 13.765625 -17.515625 C 14.335938 -17.484375 14.65625 -17.179688 14.71875 -16.609375 C 14.738281 -16.398438 14.734375 -16.191406 14.703125 -15.984375 C 14.679688 -15.785156 14.644531 -15.582031 14.59375 -15.375 C 14.582031 -15.34375 14.578125 -15.3125 14.578125 -15.28125 C 14.460938 -14.800781 14.320312 -14.328125 14.15625 -13.859375 C 13.988281 -13.398438 13.804688 -12.941406 13.609375 -12.484375 C 11.953125 -8.535156 10.210938 -4.628906 8.390625 -0.765625 C 8.335938 -0.648438 8.285156 -0.53125 8.234375 -0.40625 C 8.160156 -0.21875 8.171875 -0.0859375 8.265625 -0.015625 C 8.359375 0.0546875 8.519531 0.09375 8.75 0.09375 C 8.988281 0.09375 9.257812 0.0820312 9.5625 0.0625 C 9.613281 0.0625 9.660156 0.0507812 9.703125 0.03125 C 9.910156 0.03125 10.117188 0.0195312 10.328125 0 C 11.265625 -0.0703125 12.191406 -0.117188 13.109375 -0.140625 C 13.265625 -0.140625 13.375 -0.207031 13.4375 -0.34375 C 13.507812 -0.488281 13.582031 -0.640625 13.65625 -0.796875 C 14.84375 -3.429688 16.082031 -6.039062 17.375 -8.625 C 18.675781 -11.207031 19.988281 -13.78125 21.3125 -16.34375 C 21.332031 -16.382812 21.347656 -16.421875 21.359375 -16.453125 C 21.410156 -16.566406 21.484375 -16.664062 21.578125 -16.75 C 21.648438 -16.789062 21.734375 -16.8125 21.828125 -16.8125 C 21.929688 -16.8125 22.015625 -16.789062 22.078125 -16.75 C 22.148438 -16.707031 22.164062 -16.628906 22.125 -16.515625 C 22.113281 -16.484375 22.101562 -16.453125 22.09375 -16.421875 C 21.988281 -16.148438 21.867188 -15.878906 21.734375 -15.609375 C 21.085938 -14.285156 20.429688 -12.96875 19.765625 -11.65625 C 19.523438 -11.1875 19.289062 -10.71875 19.0625 -10.25 C 17.507812 -7.164062 15.992188 -4.0625 14.515625 -0.9375 C 14.484375 -0.882812 14.453125 -0.828125 14.421875 -0.765625 C 14.390625 -0.703125 14.363281 -0.640625 14.34375 -0.578125 C 14.25 -0.378906 14.238281 -0.25 14.3125 -0.1875 C 14.394531 -0.132812 14.519531 -0.117188 14.6875 -0.140625 C 16.46875 -0.234375 18.28125 -0.253906 20.125 -0.203125 C 21.96875 -0.148438 23.796875 -0.078125 25.609375 0.015625 C 26.160156 0.046875 26.710938 0.0703125 27.265625 0.09375 C 27.296875 0.09375 27.316406 0.09375 27.328125 0.09375 C 27.398438 0.09375 27.472656 0.0976562 27.546875 0.109375 C 27.617188 0.128906 27.6875 0.160156 27.75 0.203125 Z M 27.75 0.203125 "/></g></g></g><g fill="#c2c7d6" fill-opacity="1"><g transform="translate(90.944945, 109.989047)"><g><path d="M 5.078125 -13.390625 C 5.148438 -13.390625 5.210938 -13.363281 5.265625 -13.3125 C 5.328125 -13.257812 5.363281 -13.203125 5.375 -13.140625 C 5.382812 -13.023438 5.378906 -12.910156 5.359375 -12.796875 C 5.359375 -12.671875 5.34375 -12.554688 5.3125 -12.453125 C 5.300781 -12.398438 5.296875 -12.351562 5.296875 -12.3125 C 5.003906 -10.988281 4.640625 -9.695312 4.203125 -8.4375 C 4.160156 -8.289062 4.140625 -8.144531 4.140625 -8 C 4.160156 -7.820312 4.128906 -7.65625 4.046875 -7.5 C 3.859375 -7.226562 3.707031 -6.941406 3.59375 -6.640625 C 2.851562 -4.515625 2.050781 -2.410156 1.1875 -0.328125 C 0.46875 1.453125 -0.347656 3.195312 -1.265625 4.90625 C -1.515625 5.34375 -1.78125 5.78125 -2.0625 6.21875 C -2.195312 6.40625 -2.351562 6.582031 -2.53125 6.75 C -2.675781 6.875 -2.851562 6.910156 -3.0625 6.859375 C -3.269531 6.804688 -3.367188 6.671875 -3.359375 6.453125 C -3.335938 6.203125 -3.28125 5.953125 -3.1875 5.703125 C -2.664062 4.242188 -2.082031 2.8125 -1.4375 1.40625 C -0.257812 -1.269531 1.101562 -3.835938 2.65625 -6.296875 C 2.9375 -6.773438 3.15625 -7.265625 3.3125 -7.765625 C 3.582031 -8.597656 3.835938 -9.429688 4.078125 -10.265625 C 4.328125 -11.097656 4.539062 -11.941406 4.71875 -12.796875 C 4.738281 -12.929688 4.769531 -13.066406 4.8125 -13.203125 C 4.863281 -13.328125 4.953125 -13.390625 5.078125 -13.390625 Z M -2.203125 5.3125 C -1.453125 3.9375 -0.765625 2.535156 -0.140625 1.109375 C 0.472656 -0.316406 1.039062 -1.773438 1.5625 -3.265625 C 1.550781 -3.253906 1.539062 -3.238281 1.53125 -3.21875 C 1.507812 -3.207031 1.488281 -3.191406 1.46875 -3.171875 C 1.40625 -3.066406 1.347656 -2.960938 1.296875 -2.859375 C 0.609375 -1.597656 -0.0195312 -0.3125 -0.59375 1 C -1.175781 2.3125 -1.734375 3.628906 -2.265625 4.953125 C -2.265625 4.972656 -2.265625 4.988281 -2.265625 5 C -2.285156 5.039062 -2.296875 5.085938 -2.296875 5.140625 C -2.296875 5.191406 -2.265625 5.25 -2.203125 5.3125 Z M 29.328125 -13.6875 C 29.328125 -13.65625 29.3125 -13.625 29.28125 -13.59375 C 29.25 -13.5625 29.210938 -13.535156 29.171875 -13.515625 C 29.128906 -13.503906 29.09375 -13.503906 29.0625 -13.515625 C 28.851562 -13.648438 28.628906 -13.738281 28.390625 -13.78125 C 28.148438 -13.820312 27.914062 -13.859375 27.6875 -13.890625 C 27.507812 -13.890625 27.335938 -13.910156 27.171875 -13.953125 C 26.535156 -14.046875 25.898438 -14.125 25.265625 -14.1875 C 23.179688 -14.351562 21.09375 -14.445312 19 -14.46875 C 16.988281 -14.488281 14.972656 -14.441406 12.953125 -14.328125 C 10.679688 -14.210938 8.410156 -14.046875 6.140625 -13.828125 C 4.054688 -13.640625 1.976562 -13.410156 -0.09375 -13.140625 C -0.21875 -13.128906 -0.351562 -13.113281 -0.5 -13.09375 C -1.289062 -12.988281 -2.078125 -12.875 -2.859375 -12.75 C -3.648438 -12.632812 -4.441406 -12.488281 -5.234375 -12.3125 C -5.296875 -12.289062 -5.363281 -12.269531 -5.4375 -12.25 C -5.738281 -12.175781 -6.039062 -12.09375 -6.34375 -12 C -6.65625 -11.914062 -6.953125 -11.800781 -7.234375 -11.65625 C -7.273438 -11.632812 -7.320312 -11.617188 -7.375 -11.609375 C -7.4375 -11.597656 -7.492188 -11.597656 -7.546875 -11.609375 C -7.609375 -11.628906 -7.65625 -11.664062 -7.6875 -11.71875 C -7.71875 -11.78125 -7.722656 -11.835938 -7.703125 -11.890625 C -7.679688 -11.941406 -7.640625 -11.984375 -7.578125 -12.015625 C -7.390625 -12.109375 -7.195312 -12.191406 -7 -12.265625 C -6.488281 -12.429688 -5.976562 -12.570312 -5.46875 -12.6875 C -4.957031 -12.8125 -4.441406 -12.921875 -3.921875 -13.015625 C -2.421875 -13.265625 -0.921875 -13.484375 0.578125 -13.671875 C 2.078125 -13.859375 3.582031 -14.023438 5.09375 -14.171875 C 7.21875 -14.390625 9.34375 -14.566406 11.46875 -14.703125 C 13.320312 -14.816406 15.179688 -14.882812 17.046875 -14.90625 C 18.398438 -14.925781 19.757812 -14.914062 21.125 -14.875 C 22.488281 -14.832031 23.847656 -14.75 25.203125 -14.625 C 26.441406 -14.5 27.675781 -14.3125 28.90625 -14.0625 C 29.019531 -14.03125 29.125 -13.988281 29.21875 -13.9375 C 29.300781 -13.875 29.335938 -13.789062 29.328125 -13.6875 Z M 29.328125 -13.6875 "/></g></g></g><g clip-path="url(#c76b04e44b)"><path fill="#c2c7d6" d="M 78.371094 75.203125 L 78.371094 107.414062 L 110.582031 107.414062 L 110.582031 75.203125 Z M 110.21875 107.046875 L 78.738281 107.046875 L 78.738281 75.566406 L 110.21875 75.566406 Z M 110.21875 107.046875 " fill-opacity="1" fill-rule="nonzero"/></g></svg>