<?xml version="1.0" encoding="UTF-8" standalone="no"?>
<svg
   xmlns:dc="http://purl.org/dc/elements/1.1/"
   xmlns:cc="http://creativecommons.org/ns#"
   xmlns:rdf="http://www.w3.org/1999/02/22-rdf-syntax-ns#"
   xmlns:svg="http://www.w3.org/2000/svg"
   xmlns="http://www.w3.org/2000/svg"
   viewBox="0 0 4077.3601 3562.24"
   height="3562.24"
   width="4077.3601"
   xml:space="preserve"
   fill="#c2c7d6"
   id="svg2"
   version="1.1"><metadata
     id="metadata8"><rdf:RDF><cc:Work
         rdf:about=""><dc:format>image/svg+xml</dc:format><dc:type
           rdf:resource="http://purl.org/dc/dcmitype/StillImage" /></cc:Work></rdf:RDF></metadata><defs
     id="defs6" /><g
     transform="matrix(1.3333333,0,0,-1.3333333,0,3562.24)"
     id="g10"><g
       transform="scale(0.1)"
       id="g12"><g
         transform="scale(1.63908)"
         id="g14"><path
           id="path16"
           style="fill:#c2c7d6;fill-opacity:1;fill-rule:nonzero;stroke:none"
           d="m 13407.3,3006.51 c -79.1,-73.52 -165.6,-156.31 -254.6,-236.42 C 11399.8,1192.19 9346.22,540.485 7020.22,897.209 2996.64,1514.39 234.666,5312.13 913.243,9383.37 1565.51,13296.8 5359.26,16058.3 9255.99,15422.2 12555.4,14883.6 14978.4,12387.3 15442.9,9048 c 94,-675.68 94,-675.74 790.4,-606.25 9.1,0.91 17.1,13.54 66.5,54.91 -26.7,285.89 -38.8,605.4 -88.6,918.87 C 15499.1,13895.6 11283.4,16934.1 6823.28,16186.9 2135.23,15401.5 -895.996,10816.5 238.479,6226.79 1680.65,392.234 8650.28,-1947.19 13308.8,1848.17 c 701.4,571.36 622.3,337.08 150.4,1138.26 -4,6.83 -18.5,7.57 -51.9,20.08" /></g><g
         transform="scale(1.87607)"
         id="g18"><path
           id="path20"
           style="fill:#c2c7d6;fill-opacity:1;fill-rule:nonzero;stroke:none"
           d="m 16300.1,4335.44 c -535.2,0 -957.2,0 -1412.1,0 0,837.97 0,1623.01 0,2444.47 -32.1,1.54 -2026.6,1.54 -2058.7,0 0,-821.46 0,-1606.5 0,-2444.47 -454.9,0 -876.9,0 -1412,0 5.2,-9.17 10.4,-18.23 15.6,-27.35 -5.3,0 -10.4,0 -15.6,0 195.4,-328.66 388.2,-652.85 579.1,-973.84 608,-1038.39 1211.8,-2036.27 1804.4,-3040.552 1.4,-0.214 2.9,-0.372 4.3,-0.533 2.5,-4.21 5,-8.422 7.5,-12.58 15.3,1.92 30.7,3.838 46.1,5.811 15.3,-1.973 30.7,-3.891 46.1,-5.811 2.5,4.158 5,8.37 7.4,12.58 1.5,0.161 2.9,0.319 4.3,0.533 592.6,1004.282 1196.5,2002.162 1804.5,3040.552 190.8,320.99 383.6,645.18 579.1,973.84 -5.3,0 -10.4,0 -15.7,0 5.3,9.12 10.5,18.18 15.7,27.35" /></g><g
         transform="scale(1.34408)"
         id="g22"><path
           id="path24"
           style="fill:#c2c7d6;fill-opacity:1;fill-rule:nonzero;stroke:none"
           d="m 9145.84,3590.42 v 1479.76 c -1043.54,46.65 -2055.91,326.99 -2647.8,669.6 l 467.26,1822.37 c 654.21,-358.31 1573.06,-685.3 2585.58,-685.3 887.72,0 1495.22,342.61 1495.22,965.79 0,591.71 -498.4,965.57 -1651.02,1354.91 -1666.57,560.83 -2803.57,1339.65 -2803.57,2850.45 0,1370.7 965.66,2445.3 2632.23,2772.5 V 16300 h 1526.36 v -1370.5 c 1043.6,-46.7 1744.4,-264.9 2258.5,-514.2 l -451.7,-1759.8 c -405,171.3 -1121.5,529.4 -2242.8,529.4 -1012.54,0 -1339.6,-436 -1339.6,-872.2 0,-514 545.2,-840.9 1869.2,-1339.5 1853.4,-654.2 2601,-1510.79 2601,-2912.57 0,-1386.15 -981.3,-2569.94 -2772.5,-2881.46 V 3590.42 H 9145.84" /></g></g></g></svg>