<?xml version="1.0" standalone="no"?>
<!DOCTYPE svg PUBLIC "-//W3C//DTD SVG 20010904//EN"
 "http://www.w3.org/TR/2001/REC-SVG-20010904/DTD/svg10.dtd">
<svg version="1.0" xmlns="http://www.w3.org/2000/svg"
 width="443.000000pt" height="355.000000pt" viewBox="0 0 543.000000 455.000000"
 preserveAspectRatio="xMidYMid meet" >

<g transform="translate(0.000000,455.000000) scale(0.100000,-0.100000)"
fill='#c2c7d6' stroke="none">
<path d="M2930 3535 l0 -125 80 0 80 0 0 -60 c0 -33 -2 -60 -4 -60 -2 0 -41
-7 -86 -16 -165 -31 -335 -105 -471 -205 -85 -62 -223 -206 -277 -289 -353
-537 -208 -1252 326 -1608 452 -300 1057 -241 1446 142 397 390 460 994 155
1466 -66 102 -257 285 -363 347 -130 77 -284 132 -438 158 l-38 6 0 59 0 60
80 0 80 0 0 125 0 125 -285 0 -285 0 0 -125z m515 -515 c286 -76 525 -293 626
-570 145 -398 -6 -846 -363 -1077 -295 -191 -685 -193 -978 -5 -150 96 -272
236 -345 395 -119 261 -103 588 41 832 137 231 365 390 629 441 99 19 288 11
390 -16z"/>
<path d="M3140 2465 l0 -405 360 0 361 0 -3 78 -3 77 -280 1 -280 2 -3 326 -2
326 -75 0 -75 0 0 -405z"/>
<path d="M1300 3020 l0 -80 453 2 452 3 3 78 3 77 -456 0 -455 0 0 -80z"/>
<path d="M940 2560 l0 -80 450 0 450 0 0 80 0 80 -450 0 -450 0 0 -80z"/>
<path d="M857 2214 c-4 -4 -7 -40 -7 -81 l0 -73 450 0 450 0 0 80 0 79 -443 1
c-244 0 -446 -3 -450 -6z"/>
<path d="M940 1675 l0 -75 450 0 450 0 0 75 0 75 -450 0 -450 0 0 -75z"/>
<path d="M1300 1215 l0 -75 455 0 455 0 0 75 0 75 -455 0 -455 0 0 -75z"/>
</g>
</svg>
